<?xml version="1.0" encoding="UTF-8"?>
<svg id="_レイヤー_2" xmlns="http://www.w3.org/2000/svg" version="1.1" viewBox="0 0 532.4 60.8">
  <!-- Generator: Adobe Illustrator 29.1.0, SVG Export Plug-In . SVG Version: 2.1.0 Build 142)  -->
  <defs>
    <style>
      .st0 {
        fill: #2f2c2a;
      }
    </style>
  </defs>
  <g id="_レイヤー_1-2">
    <g>
      <path class="st0" d="M23.3,48.5C9.1,48.5,0,38.5,0,25.6S9.2,2.8,24.4,2.8s12.1,1.8,15.4,2.9l1.3,10.1-.8.3c-5.6-8.1-10-11.4-16.3-11.4C13,4.7,7.9,13.9,7.9,25.8s4.5,20.9,15.6,20.9,11-3,11-8.9-.6-6.4-2.8-10h0c0-.1,11.8-.1,11.8-.1h0c-2,3.8-2.4,5.9-2.4,10.9v3.6c-2.8,2-8,6.4-17.6,6.4h-.2Z"/>
      <path class="st0" d="M47.8,47.5c.8-1.7,1.4-3.8,1.4-8.5V11.4c0-4.1-1.3-6.4-2.8-8v-.2l9-3.2v38.9c0,4.6.6,6.8,1.4,8.5h0c0,0-9.1,0-9.1,0h0Z"/>
      <path class="st0" d="M61.1,32.8c0-8.3,7.3-15.8,15.9-15.8s16,7.4,16,15.8-7.2,15.7-16,15.7-16-7.3-15.9-15.7ZM86.2,32.8c0-7.3-3.1-13.9-9.2-13.9s-9.1,6.7-9.1,13.9,3.1,13.8,9.1,13.8,9.2-6.5,9.2-13.8Z"/>
      <path class="st0" d="M97.4,47.5c1.1-3.4,1.4-6.4,1.4-11.9v-7.3c0-4.1-1.3-6.4-2.9-8.1h0c0-.1,8.8-3.4,8.8-3.4v7.4h.2c2.5-2.8,5.9-7.2,9.9-7.1v7.6h-.7c-1.2-.7-3.8-1.5-5.1-1.5s-2.7,1-4.1,2.9v9.4c0,5.5,0,8.6,1.4,12h0c0,0-9,0-9,0h0Z"/>
      <path class="st0" d="M119,47.5c.8-3.4,1.4-6.5,1.4-11.9v-7c0-4-1.3-6.4-2.9-8v-.5l9.1-3.3v18.7c0,5.3,0,8.6,1.4,12h0c0,0-9,0-9,0h0ZM119.5,7.5c0-2.2,1.6-3.8,3.7-3.8s3.8,1.7,3.8,3.8-1.7,3.7-3.8,3.7-3.7-1.7-3.7-3.7Z"/>
      <path class="st0" d="M132.5,42.7c0-6.7,9.2-9.9,16-11v-4.4c0-4.3-1.5-6.2-5.8-6.2s-5.8.7-8.5,2.6l-.6-.6c2.6-3.5,7.1-6,12.4-6s8.8,4,8.8,8.6v16c0,1.7.6,2.8,2.4,2.8s2.1-.4,3.2-1.4l.5.5c-1,2-3.1,4.7-6.9,4.7s-5-1.9-5.3-4.3c-2,2.3-5.3,4.4-9.3,4.4s-6.8-2.1-6.8-5.8h0ZM143,44.8c2.3,0,4.5-1,5.6-2.2v-9.3c-5.1,1.1-10.2,3.5-10.2,7.6s1.7,3.9,4.6,3.9h0Z"/>
      <path class="st0" d="M175.9,47.5c1.9-3.2,2.4-4.9,2.4-9.1V12.9c0-4.2-.5-5.9-2.4-9.1h0c7.5,0,8.5-.4,16.4-.4,14.9,0,24,7.7,24,22s-8.6,22.2-24,22.2h-16.4ZM191.8,5.3h-6.6v40.6l6.7-.2c12.2-.3,16.7-7.3,16.7-20s-5.5-20.4-16.8-20.4h0Z"/>
      <path class="st0" d="M244.4,39.6l.7.5c-1.9,4.6-5.9,8.3-12.2,8.3s-13.8-6.2-13.8-15.1,7.1-16.3,14.2-16.3,12.2,6.7,11.6,12.8h-19.6v.9c0,8.3,4.4,12.5,10.7,12.5s6.1-1.1,8.3-3.6h.1ZM225.6,28.1l13.1-.3v-.7c0-5.6-1.9-8.2-5.5-8.2s-7,3.8-7.6,9.2Z"/>
      <path class="st0" d="M268.1,25.4l-.7.2c-2.9-5.2-6.4-6.7-9.4-6.7s-4.9,1.7-4.9,4.1c0,3.5,4,4.8,8,6.5,4.3,1.8,8.7,4.1,8.7,10s-5.2,9.1-11.7,9.1-6.5-.7-9.2-1.6l-.7-8.3.7-.2c3,5.8,6.1,8.3,10,8.3s5.5-2.5,5.5-4.9-2.6-4.6-6.2-6.2c-4.3-1.9-9.5-3.8-9.5-10.1s5.4-8.5,10.9-8.5,6.1.6,7.7,1.3l.7,7.1h0Z"/>
      <path class="st0" d="M274,47.5c.8-3.4,1.4-6.5,1.4-11.9v-7c0-4-1.3-6.4-2.9-8v-.5l9.1-3.3v18.7c0,5.3.1,8.6,1.4,12h0c0,0-9,0-9,0h0ZM274.5,7.5c0-2.2,1.6-3.8,3.7-3.8s3.8,1.7,3.8,3.8-1.7,3.7-3.8,3.7-3.7-1.7-3.7-3.7Z"/>
      <path class="st0" d="M296.5,37.1c-2.3.7-3.1,1.9-3.1,3.1,0,2,2.3,2.6,6.1,2.7l6.2.2c6.2.2,10.9,2.6,10.7,7.7-.2,5.5-5.8,10-16.4,10s-13.8-2.6-13.8-7.4,2.5-5,5.3-5.8c-1.8-.9-2.9-2.3-2.9-4.6,0-3.7,2.9-5.8,6.1-6.7-3.5-1.8-5.9-5.1-5.9-8.9,0-5.9,5.2-10.4,11.6-10.4s6.1,1.2,8.2,2.9l8.2-4.4h.1v5.9h-.2l-6.7-.2c1.4,1.7,2.3,3.8,2.3,6.1,0,5.6-5.2,10.3-11.8,10.3s-2.8-.2-4-.6h0ZM302.2,58.3c6.7,0,10.1-2,10.1-5.1s-3.2-3.8-7-4l-6.8-.2c-2,0-3.9-.3-5.5-.8-.8.7-1.7,1.9-1.7,3.8,0,4.1,4,6.2,10.9,6.2h0ZM306,27.5c0-4.9-1.5-8.6-5.6-8.6s-5.3,3.7-5.3,8.6,1.5,8.5,5.4,8.5,5.5-3.6,5.5-8.5Z"/>
      <path class="st0" d="M320.9,47.5c1.1-3.4,1.4-6.4,1.4-11.9v-7.3c0-4.1-1.3-6.4-2.9-8.1h0c0-.1,8.8-3.4,8.8-3.4v6h.2c2.7-3.3,5.7-5.7,10.1-5.7s8.8,3.5,8.8,9v9.4c0,5.6.1,8.6,1.4,12h0c0,0-9.1,0-9.1,0h0c1.1-3.5,1.4-6.8,1.4-12.1v-8c0-3.4-1.6-6.3-5.7-6.3s-5.1,1.1-6.9,3.4v10.8c0,5.5.1,8.6,1.4,12h0c0,0-9,0-9,0h.1Z"/>
      <path class="st0" d="M375.7,3.7h0c-1.1,1.9-1.6,5.6-.1,10.1l7.6,24.2,9.3-23.7-.3-.8c-1.9-5.2-3-7.5-5.1-9.7h0c0,0,12.5,0,12.5,0h0c-1,1.8-1.7,5.6-.1,10.1l8.2,23.8,6.7-20.8c2.3-7,1.1-10.9-.1-12.9h0c0,0,8.6,0,8.6,0h0c-2.8,3.1-4.2,5.9-5.9,11l-10.7,33.4h-1.9l-11-31.1-12.1,31.1h-1.9l-11.1-34.6c-1.7-5.2-3-7.5-5.1-9.7h0c0,0,12.5,0,12.5,0h0Z"/>
      <path class="st0" d="M424.4,32.8c0-8.3,7.3-15.8,15.9-15.8s16,7.4,16,15.8-7.2,15.7-16,15.7-16-7.3-15.9-15.7ZM449.5,32.8c0-7.3-3.1-13.9-9.2-13.9s-9.1,6.7-9.1,13.9,3.1,13.8,9.1,13.8,9.2-6.5,9.2-13.8Z"/>
      <path class="st0" d="M460.7,47.5c1.1-3.4,1.4-6.4,1.4-11.9v-7.3c0-4.1-1.3-6.4-2.9-8.1h0c0-.1,8.8-3.4,8.8-3.4v7.4h.2c2.5-2.8,5.9-7.2,9.9-7.1v7.6h-.7c-1.2-.7-3.8-1.5-5.1-1.5s-2.7,1-4.1,2.9v9.4c0,5.5.1,8.6,1.4,12h0c0,0-9,0-9,0h.1Z"/>
      <path class="st0" d="M482.1,47.5c.8-1.7,1.4-3.8,1.4-8.5V11.4c0-4.1-1.3-6.4-2.8-8v-.2l9-3.2v38.9c0,4.6.7,6.8,1.6,8.5h0c0,0-9.1,0-9.1,0h-.1ZM501,47.6l-10.7-15.4,6.8-7.7c1.9-2.2,2.8-4.8,1.7-6.4h0c0-.1,8.5-.1,8.5-.1h0c-3.5,1.8-6.2,4.4-8.6,7.2l-3.4,3.9,8.9,12.8c1.9,2.6,3.3,4.4,5.5,5.6h0c0,0-8.6,0-8.6,0h0Z"/>
      <path class="st0" d="M530.6,25.4l-.7.2c-2.9-5.2-6.4-6.7-9.4-6.7s-4.9,1.7-4.9,4.1c0,3.5,4,4.8,8,6.5,4.3,1.8,8.7,4.1,8.7,10s-5.2,9.1-11.7,9.1-6.5-.7-9.2-1.6l-.7-8.3.7-.2c3,5.8,6.1,8.3,10,8.3s5.5-2.5,5.5-4.9-2.6-4.6-6.2-6.2c-4.3-1.9-9.5-3.8-9.5-10.1s5.4-8.5,10.9-8.5,6.1.6,7.7,1.3l.7,7.1h.1Z"/>
    </g>
  </g>
  <text/>
</svg>